<svg width="1920" height="1080" viewBox="0 0 1920 1080" fill="none" xmlns="http://www.w3.org/2000/svg">
<rect width="1920" height="1080" fill="white"/>
<path d="M1256.3 661.368C1257.2 661.608 1257.81 662.407 1257.78 663.332C1257.49 672.431 1255.8 719.627 1250.78 756.249C1245.94 791.629 1233.86 851.809 1231.74 862.289C1231.55 863.221 1230.73 863.868 1229.78 863.868L878.279 863.868C877.071 863.868 876.139 862.807 876.295 861.61L914.042 572.034C914.198 570.835 915.375 570.048 916.543 570.361L1256.3 661.368Z" fill="#F691C1"/>
<path d="M1250.78 756.249C1245.94 791.628 1233.86 851.809 1231.74 862.289C1231.55 863.22 1230.73 863.868 1229.78 863.868L878.279 863.868C877.072 863.868 876.139 862.807 876.295 861.61L914.042 572.034L914.084 571.814C914.346 570.741 915.448 570.067 916.543 570.361L1256.3 661.368C1257.2 661.608 1257.81 662.407 1257.78 663.332C1257.49 672.432 1255.8 719.627 1250.78 756.249ZM1245.83 755.571C1250.47 721.74 1252.25 678.7 1252.7 665.58L918.558 576.076L881.695 858.867L1227.32 858.868C1230.39 843.625 1241.3 788.639 1245.83 755.571Z" fill="url(#paint0_linear_26_2)"/>
<path d="M1044.01 655.643V826.422H1146.52C1146.56 825.997 1146.62 825.525 1146.69 825.011C1147.02 822.672 1147.68 819.448 1149 815.875C1151.65 808.718 1156.97 800.093 1167.63 794.506C1178.41 788.853 1189.51 790.151 1197.71 792.714C1201.83 794.001 1205.28 795.626 1207.71 796.929C1207.78 796.97 1207.86 797.011 1207.93 797.051L1213.83 693.836L1218.82 694.121L1212.69 801.463C1212.64 802.369 1212.1 803.175 1211.28 803.571C1210.47 803.965 1209.5 803.888 1208.76 803.369L1208.76 803.368L1208.76 803.367C1208.76 803.366 1208.75 803.365 1208.75 803.365C1208.75 803.36 1208.74 803.353 1208.72 803.342C1208.69 803.32 1208.63 803.283 1208.56 803.236C1208.42 803.14 1208.2 802.996 1207.91 802.814C1207.32 802.448 1206.45 801.929 1205.34 801.334C1203.12 800.141 1199.96 798.656 1196.22 797.486C1188.7 795.135 1179.1 794.133 1169.95 798.934C1160.67 803.801 1156.03 811.278 1153.69 817.608C1152.52 820.779 1151.93 823.646 1151.64 825.711C1151.49 826.742 1151.42 827.568 1151.39 828.125C1151.37 828.404 1151.36 828.615 1151.36 828.75C1151.36 828.818 1151.35 828.868 1151.35 828.897C1151.35 828.911 1151.35 828.921 1151.35 828.925L1151.34 829.178C1151.21 830.439 1150.15 831.422 1148.85 831.422H1041.51C1040.13 831.422 1039.01 830.303 1039.01 828.922V655.643H1044.01Z" fill="#7D2E5E"/>
<path d="M1192.54 842.873C1196.71 841.696 1206.58 829.626 1206.82 822.198C1207.01 816.541 1205.99 813.07 1200.26 811.216C1194.54 809.362 1186.62 818.184 1186.62 818.184C1186.62 818.184 1177.41 812.059 1172.51 814.879C1166.67 818.231 1168.8 826.329 1172.27 831.247C1175.73 836.166 1188.36 844.051 1192.54 842.873Z" fill="#F770B0"/>
<path d="M1010.28 649.509V830.455H1005.28V649.509H1010.28Z" fill="#7D2E5E"/>
<path d="M1357.05 189.475L1475.66 280.844L1368.67 419.73L1250.06 328.362L1357.05 189.475Z" fill="#F87FB8"/>
<path d="M1479.17 280.389L1369.13 423.236L1246.56 328.816L1356.6 185.969L1479.17 280.389ZM1253.57 327.907L1368.22 416.224L1472.15 281.299L1357.51 192.981L1253.57 327.907Z" fill="url(#paint1_linear_26_2)"/>
<path d="M1089.4 102.318C1089.9 101.333 1091.1 100.941 1092.09 101.442L1221.98 167.488C1222.97 167.988 1223.36 169.193 1222.86 170.177L1145.21 322.888C1144.71 323.872 1143.5 324.265 1142.52 323.764L1012.63 257.718C1011.64 257.217 1011.25 256.013 1011.75 255.028L1089.4 102.318Z" fill="#F795BF"/>
<path d="M1014.21 255.716L1143.21 321.309L1220.4 169.49L1091.4 103.897L1014.21 255.716ZM1147.44 324.021C1146.31 326.236 1143.6 327.119 1141.39 325.992L1011.49 259.946C1009.28 258.82 1008.4 256.111 1009.52 253.895L1087.17 101.185C1088.3 98.9695 1091 98.0867 1093.22 99.2132L1223.11 165.259C1225.33 166.386 1226.21 169.095 1225.09 171.31L1147.44 324.021Z" fill="url(#paint2_linear_26_2)"/>
<path d="M1299.46 232.305C1289.81 230.348 1275 238.44 1275 238.44L1366.73 605C1366.73 605 1383.49 602.404 1388.13 594.264C1392.28 586.983 1388.13 572.792 1388.13 572.792C1388.13 572.792 1398.83 572.792 1411.06 560.522C1423.29 548.252 1421.76 531.381 1421.76 531.381C1421.76 531.381 1433.99 531.381 1443.16 516.044C1452.34 500.707 1443.16 482.302 1443.16 482.302C1443.16 482.302 1461.51 473.1 1461.51 454.695C1461.51 436.29 1452.34 428.622 1452.34 428.622C1452.34 428.622 1464.57 419.42 1461.51 397.947C1458.45 376.475 1443.16 371.874 1443.16 371.874C1443.16 371.874 1452.34 353.469 1443.16 338.132C1433.99 322.795 1417.18 325.862 1417.18 325.862C1417.18 325.862 1421.76 304.39 1411.06 293.654C1400.36 282.918 1382.01 285.986 1382.01 285.986C1382.01 285.986 1378.96 266.047 1362.14 255.311C1345.32 244.575 1322.39 255.311 1322.39 255.311C1322.39 255.311 1311.87 234.823 1299.46 232.305Z" fill="#FCC8D3"/>
<path d="M1440.92 370.762C1440.93 370.761 1440.93 370.761 1440.93 370.759C1440.93 370.754 1440.93 370.745 1440.94 370.732C1440.95 370.706 1440.97 370.662 1441 370.603C1441.06 370.483 1441.14 370.298 1441.25 370.053C1441.46 369.562 1441.77 368.831 1442.11 367.902C1442.78 366.041 1443.6 363.404 1444.14 360.321C1445.23 354.118 1445.18 346.369 1441.02 339.415C1436.87 332.472 1431.04 329.73 1426.2 328.69C1423.77 328.166 1421.58 328.078 1420.02 328.122C1419.23 328.144 1418.61 328.198 1418.2 328.245C1417.99 328.269 1417.83 328.29 1417.74 328.305C1417.69 328.312 1417.65 328.317 1417.63 328.32L1417.62 328.321C1416.8 328.471 1415.96 328.202 1415.38 327.604C1414.8 327.005 1414.56 326.157 1414.73 325.342H1414.73C1414.73 325.341 1414.73 325.339 1414.73 325.336C1414.73 325.329 1414.74 325.317 1414.74 325.301C1414.75 325.268 1414.76 325.215 1414.77 325.144C1414.8 325 1414.84 324.781 1414.89 324.495C1414.99 323.923 1415.12 323.085 1415.24 322.041C1415.49 319.948 1415.72 317.056 1415.63 313.855C1415.45 307.334 1413.95 300.096 1409.29 295.419C1404.53 290.64 1397.94 288.831 1392.28 288.282C1389.48 288.01 1386.99 288.055 1385.21 288.169C1384.31 288.226 1383.6 288.299 1383.12 288.356C1382.88 288.385 1382.7 288.411 1382.58 288.428C1382.52 288.436 1382.48 288.443 1382.45 288.447C1382.44 288.449 1382.43 288.45 1382.43 288.451C1381.77 288.561 1381.09 288.403 1380.55 288.011C1380.01 287.619 1379.64 287.025 1379.54 286.364C1379.54 286.359 1379.54 286.35 1379.54 286.336C1379.53 286.308 1379.53 286.262 1379.51 286.198C1379.49 286.07 1379.45 285.872 1379.4 285.611C1379.29 285.09 1379.12 284.319 1378.86 283.354C1378.34 281.42 1377.47 278.724 1376.11 275.706C1373.36 269.654 1368.66 262.442 1360.79 257.418C1353.15 252.535 1343.95 252.453 1336.38 253.749C1332.63 254.391 1329.38 255.357 1327.06 256.163C1325.9 256.565 1324.99 256.925 1324.36 257.182C1324.05 257.31 1323.82 257.412 1323.66 257.48C1323.59 257.514 1323.53 257.539 1323.49 257.556C1323.48 257.564 1323.46 257.57 1323.46 257.573L1323.45 257.576C1322.31 258.11 1320.96 257.707 1320.29 256.669L1320.17 256.453L1320.16 256.445C1320.16 256.438 1320.15 256.426 1320.14 256.409C1320.13 256.376 1320.1 256.323 1320.06 256.254C1319.99 256.114 1319.88 255.904 1319.73 255.634C1319.43 255.093 1318.98 254.31 1318.41 253.36C1317.27 251.456 1315.62 248.9 1313.6 246.276C1311.58 243.645 1309.22 241 1306.68 238.883C1304.12 236.752 1301.51 235.272 1298.96 234.756C1294.87 233.925 1289.32 235.228 1284.46 236.989C1282.1 237.845 1280.02 238.763 1278.53 239.467C1278.31 239.572 1278.1 239.673 1277.91 239.768L1368.58 602.091C1368.67 602.07 1368.77 602.051 1368.87 602.028C1370.45 601.672 1372.59 601.118 1374.86 600.324C1377.15 599.528 1379.49 598.512 1381.5 597.255C1383.54 595.987 1385.08 594.567 1385.96 593.026C1387.6 590.144 1387.71 585.503 1387.2 581.087C1386.95 578.967 1386.58 577.054 1386.27 575.67C1386.12 574.98 1385.98 574.426 1385.88 574.049C1385.83 573.861 1385.79 573.716 1385.77 573.622C1385.75 573.575 1385.74 573.54 1385.74 573.519C1385.73 573.508 1385.73 573.499 1385.73 573.495L1385.73 573.493L1385.69 573.351C1385.53 572.636 1385.69 571.882 1386.13 571.292C1386.6 570.663 1387.34 570.293 1388.13 570.292H1388.11C1388.12 570.292 1388.14 570.291 1388.16 570.29C1388.21 570.288 1388.3 570.285 1388.42 570.275C1388.67 570.256 1389.07 570.216 1389.6 570.132C1390.65 569.963 1392.21 569.617 1394.15 568.909C1398.02 567.497 1403.44 564.624 1409.29 558.757C1414.95 553.075 1417.46 546.296 1418.55 540.861C1419.09 538.15 1419.27 535.802 1419.31 534.142C1419.33 533.313 1419.32 532.66 1419.3 532.223C1419.3 532.004 1419.29 531.84 1419.28 531.735C1419.28 531.683 1419.28 531.646 1419.27 531.624C1419.27 531.616 1419.27 531.61 1419.27 531.606C1419.21 530.907 1419.44 530.214 1419.92 529.695C1420.39 529.181 1421.05 528.885 1421.75 528.881H1421.75C1421.75 528.881 1421.77 528.881 1421.8 528.88C1421.86 528.878 1421.95 528.872 1422.09 528.86C1422.37 528.837 1422.8 528.787 1423.36 528.684C1424.48 528.476 1426.09 528.053 1427.99 527.189C1431.74 525.475 1436.7 521.979 1441.02 514.761C1445.18 507.806 1445.23 500.058 1444.14 493.854C1443.6 490.772 1442.78 488.136 1442.11 486.274C1441.77 485.346 1441.46 484.615 1441.25 484.124C1441.14 483.879 1441.06 483.693 1441 483.573C1440.97 483.514 1440.95 483.471 1440.94 483.444C1440.93 483.431 1440.93 483.423 1440.93 483.418C1440.93 483.416 1440.92 483.414 1440.92 483.414L1440.93 483.415L1440.82 483.184C1440.38 482 1440.89 480.647 1442.04 480.067C1442.05 480.065 1442.06 480.061 1442.07 480.055C1442.09 480.042 1442.13 480.021 1442.19 479.99C1442.3 479.929 1442.48 479.833 1442.71 479.702C1443.17 479.44 1443.83 479.039 1444.64 478.499C1446.26 477.417 1448.42 475.793 1450.57 473.636C1454.88 469.308 1459.01 463.004 1459.01 454.695C1459.01 445.929 1456.83 439.819 1454.73 435.951C1453.67 434.01 1452.63 432.619 1451.87 431.731C1451.49 431.288 1451.18 430.97 1450.98 430.773C1450.88 430.675 1450.81 430.607 1450.76 430.568L1450.73 430.534L1450.73 430.535C1450.15 430.046 1449.82 429.318 1449.84 428.558C1449.86 427.798 1450.22 427.088 1450.83 426.629C1450.83 426.628 1450.83 426.628 1450.83 426.627C1450.84 426.619 1450.86 426.603 1450.89 426.578C1450.95 426.528 1451.05 426.442 1451.19 426.32C1451.46 426.077 1451.87 425.692 1452.36 425.159C1453.34 424.092 1454.64 422.438 1455.87 420.154C1458.3 415.617 1460.48 408.484 1459.03 398.3C1457.59 388.169 1453.3 382.17 1449.51 378.706C1447.59 376.959 1445.77 375.832 1444.45 375.148C1443.79 374.807 1443.26 374.578 1442.91 374.438C1442.73 374.369 1442.6 374.321 1442.52 374.294C1442.48 374.28 1442.45 374.272 1442.44 374.268L1442.43 374.266C1442.44 374.266 1442.44 374.266 1442.44 374.267L1442.44 374.268V374.267C1441.74 374.054 1441.16 373.542 1440.87 372.866C1440.58 372.191 1440.6 371.421 1440.92 370.762ZM1464.01 454.695C1464.01 464.791 1458.97 472.29 1454.11 477.165C1451.67 479.609 1449.24 481.436 1447.42 482.654C1447.03 482.914 1446.67 483.146 1446.34 483.352C1446.48 483.715 1446.64 484.119 1446.8 484.562C1447.56 486.63 1448.46 489.553 1449.07 492.988C1450.27 499.821 1450.32 508.944 1445.31 517.327C1440.45 525.447 1434.71 529.619 1430.06 531.739C1427.78 532.781 1425.78 533.315 1424.32 533.59C1424.32 533.806 1424.32 534.035 1424.31 534.276C1424.26 536.163 1424.06 538.799 1423.45 541.839C1422.24 547.907 1419.4 555.7 1412.83 562.287C1406.45 568.69 1400.4 571.952 1395.87 573.606C1394.04 574.272 1392.47 574.673 1391.22 574.917C1391.54 576.389 1391.92 578.342 1392.17 580.509C1392.69 585.008 1392.81 591.103 1390.3 595.501C1388.86 598.03 1386.57 599.988 1384.15 601.496C1381.72 603.015 1379 604.175 1376.51 605.045C1374.01 605.918 1371.68 606.521 1369.97 606.906C1369.11 607.099 1368.41 607.238 1367.91 607.33C1367.66 607.376 1367.47 607.41 1367.33 607.434C1367.27 607.445 1367.21 607.454 1367.17 607.46C1367.16 607.463 1367.14 607.466 1367.13 607.468C1367.12 607.469 1367.12 607.469 1367.12 607.47C1367.11 607.47 1367.11 607.47 1367.11 607.47L1367.11 607.471C1367.11 607.47 1367.1 607.43 1366.73 605L1367.11 607.471C1365.83 607.668 1364.61 606.86 1364.3 605.606L1272.58 239.047C1272.3 237.943 1272.8 236.792 1273.8 236.246L1275 238.44C1273.84 236.324 1273.8 236.249 1273.8 236.246L1273.81 236.243C1273.81 236.242 1273.81 236.24 1273.82 236.237C1273.83 236.232 1273.84 236.225 1273.86 236.216C1273.89 236.198 1273.94 236.173 1274 236.142C1274.12 236.078 1274.29 235.986 1274.51 235.872C1274.96 235.644 1275.6 235.323 1276.4 234.946C1277.99 234.194 1280.21 233.211 1282.76 232.288C1287.72 230.493 1294.4 228.729 1299.96 229.855C1303.62 230.598 1306.98 232.623 1309.88 235.041C1312.8 237.473 1315.4 240.423 1317.56 243.229C1319.73 246.042 1321.48 248.765 1322.7 250.781C1323 251.281 1323.27 251.738 1323.5 252.144C1324.05 251.931 1324.69 251.693 1325.42 251.44C1327.92 250.569 1331.45 249.521 1335.54 248.821C1343.64 247.434 1354.32 247.351 1363.49 253.204C1372.43 258.916 1377.67 267.042 1380.66 273.643C1382.16 276.952 1383.11 279.911 1383.69 282.052C1383.8 282.483 1383.9 282.883 1383.99 283.245C1384.27 283.222 1384.57 283.199 1384.89 283.179C1386.88 283.053 1389.64 283.002 1392.77 283.306C1398.96 283.907 1406.89 285.933 1412.83 291.89C1418.87 297.949 1420.43 306.814 1420.63 313.713C1420.73 317.223 1420.48 320.37 1420.21 322.639C1420.19 322.803 1420.17 322.964 1420.15 323.119C1421.99 323.084 1424.48 323.205 1427.25 323.802C1433.12 325.062 1440.29 328.455 1445.31 336.849C1450.32 345.231 1450.27 354.355 1449.07 361.188C1448.46 364.623 1447.56 367.547 1446.8 369.615C1446.68 369.952 1446.56 370.266 1446.45 370.557C1446.55 370.606 1446.65 370.656 1446.75 370.709C1448.39 371.559 1450.59 372.925 1452.88 375.012C1457.49 379.216 1462.37 386.254 1463.98 397.595C1465.59 408.882 1463.19 417.086 1460.27 422.519C1458.82 425.219 1457.26 427.209 1456.04 428.538C1455.98 428.601 1455.93 428.661 1455.87 428.721C1456.8 429.84 1457.97 431.44 1459.12 433.563C1461.6 438.13 1464.01 445.057 1464.01 454.695ZM1450.83 426.626L1450.83 426.627C1450.83 426.628 1450.83 426.628 1450.83 426.629C1450.83 426.628 1450.83 426.627 1450.83 426.626Z" fill="url(#paint3_linear_26_2)"/>
<path d="M1050.16 184.837L1021.55 241.591L1085.2 274.577L1121.71 214.374L1117.09 171.471L1050.16 184.837Z" fill="black" fill-opacity="0.2"/>
<path d="M1137.65 665.342C1195.5 664.923 1389.18 598.444 1421.83 492.973C1444.15 420.888 1428.78 329.84 1355.63 291.25C1282.48 252.66 1199.36 308.881 1199.36 308.881C1199.36 308.881 1139.62 231.356 1066.58 250.309C979.728 272.845 927.088 340.505 939.214 429.287C951.339 518.068 1079.79 665.76 1137.65 665.342Z" fill="#F581B8"/>
<path d="M1356.8 289.038C1431.44 328.416 1446.73 421.013 1424.22 493.713C1415.87 520.666 1397.3 544.961 1373.45 566.209C1349.59 587.468 1320.31 605.795 1290.31 620.789C1260.3 635.786 1229.51 647.483 1202.58 655.462C1175.69 663.424 1152.48 667.735 1137.66 667.842C1122.32 667.952 1102.87 658.343 1082.44 643.124C1061.89 627.81 1039.9 606.471 1019.38 582.384C998.855 558.292 979.755 531.387 965.014 504.9C950.29 478.445 939.827 452.256 936.736 429.625C930.593 384.639 940.853 344.87 963.76 313.482C986.653 282.115 1022.06 259.279 1065.95 247.89C1103.5 238.145 1137.47 253.248 1161.8 270.447C1174 279.066 1183.86 288.276 1190.68 295.326C1194.09 298.854 1196.75 301.847 1198.55 303.965C1199.07 304.572 1199.52 305.108 1199.9 305.564C1200.42 305.233 1201.05 304.843 1201.78 304.402C1204.24 302.916 1207.81 300.845 1212.33 298.484C1221.37 293.765 1234.18 287.877 1249.33 283.206C1279.56 273.878 1319.39 269.307 1356.8 289.038ZM1419.44 492.234C1441.57 420.762 1426.12 331.263 1354.46 293.461C1318.71 274.602 1280.41 278.848 1250.8 287.983C1236.02 292.543 1223.48 298.299 1214.65 302.915C1210.23 305.222 1206.75 307.241 1204.37 308.679C1203.18 309.398 1202.27 309.972 1201.66 310.363C1201.36 310.558 1201.13 310.708 1200.98 310.808C1200.9 310.857 1200.85 310.895 1200.81 310.919C1200.79 310.931 1200.78 310.94 1200.77 310.945C1200.77 310.948 1200.76 310.95 1200.76 310.951L1200.76 310.952L1198.81 312.268L1197.38 310.407L1197.38 310.406C1197.38 310.405 1197.38 310.402 1197.37 310.398C1197.37 310.391 1197.36 310.378 1197.35 310.362C1197.32 310.328 1197.28 310.277 1197.22 310.208C1197.12 310.069 1196.95 309.861 1196.73 309.587C1196.29 309.04 1195.62 308.233 1194.75 307.209C1193 305.161 1190.42 302.246 1187.09 298.802C1180.42 291.909 1170.79 282.923 1158.92 274.53C1135.11 257.704 1102.69 243.521 1067.21 252.729C1024.25 263.876 989.907 286.138 967.8 316.43C945.707 346.701 935.709 385.152 941.691 428.948C944.662 450.707 954.804 476.273 969.383 502.468C983.944 528.629 1002.85 555.267 1023.18 579.142C1043.53 603.024 1065.25 624.08 1085.43 639.115C1105.74 654.245 1124.04 662.94 1137.63 662.842C1151.74 662.74 1174.43 658.584 1201.16 650.668C1227.83 642.768 1258.34 631.174 1288.07 616.316C1317.81 601.454 1346.68 583.358 1370.12 562.476C1393.58 541.583 1411.46 518.016 1419.44 492.234Z" fill="url(#paint4_linear_26_2)"/>
<path d="M894.378 214.652C894.336 213.548 895.196 212.619 896.3 212.577L1096.72 204.886C1097.82 204.844 1098.75 205.704 1098.8 206.808L1105.36 378C1105.41 379.103 1104.55 380.032 1103.44 380.075L903.023 387.765C901.919 387.808 900.99 386.947 900.947 385.844L894.378 214.652Z" fill="#F9C5D2"/>
<path d="M905.829 382.654L1100.25 375.193L1093.91 209.998L899.49 217.458L905.829 382.654ZM1105.37 377.999L1105.36 378.205C1105.3 379.149 1104.58 379.925 1103.65 380.057L1103.44 380.075L903.023 387.765C901.919 387.808 900.99 386.947 900.947 385.843L894.378 214.652C894.336 213.548 895.196 212.619 896.3 212.577L1096.72 204.886L1096.93 204.889C1097.94 204.953 1098.76 205.773 1098.8 206.808L1105.37 377.999Z" fill="url(#paint5_linear_26_2)"/>
<path d="M1417.09 238.77C1417.96 239.438 1418.13 240.68 1417.47 241.556L1241.56 476.051C1240.98 476.824 1239.93 477.072 1239.06 476.64L1208.66 461.459C1207.57 460.917 1207.21 459.541 1207.9 458.54L1377.41 210.945C1378.06 209.998 1379.37 209.789 1380.28 210.489L1417.09 238.77Z" fill="black" fill-opacity="0.2"/>
<path d="M1202.19 90.5423C1202.77 89.6647 1203.92 89.3792 1204.84 89.8881L1389.2 192.233C1390.21 192.79 1390.54 194.077 1389.92 195.049L1211.23 478.229C1210.62 479.199 1209.32 479.457 1208.38 478.794L1032.26 353.971C1031.39 353.349 1031.16 352.145 1031.75 351.245L1202.19 90.5423Z" fill="#FCC8D3"/>
<path d="M1389.2 192.232C1390.21 192.79 1390.54 194.077 1389.92 195.049L1211.23 478.229C1210.62 479.199 1209.32 479.457 1208.38 478.794L1032.26 353.971C1031.44 353.388 1031.19 352.293 1031.65 351.417L1031.75 351.245L1202.19 90.5426C1202.77 89.6651 1203.92 89.3793 1204.84 89.8881L1389.2 192.232ZM1204.85 95.614L1037.51 351.563L1208.69 472.883L1384 195.063L1204.85 95.614Z" fill="url(#paint6_linear_26_2)"/>
<path d="M1239.63 217.307L1386.13 193.142L1386.95 198.076L1239.3 222.429L1118.76 410.109L1114.55 407.407L1235.09 219.719L1201.64 93.5085L1206.47 92.2273L1239.63 217.307Z" fill="#7E2E5E"/>
<path d="M907.692 574.467L1201.68 646.747L1241.97 712.533L1277.66 752.25L1184.12 713.914L1179.08 738.633L885.101 666.353L907.692 574.467Z" fill="black" fill-opacity="0.2"/>
<path d="M1177.1 263.605C1178.29 263.329 1179.45 264.175 1179.55 265.393L1193.13 433.95C1193.23 435.201 1192.17 436.235 1190.92 436.099L998.653 415.233C997.193 415.075 996.396 413.449 997.165 412.198L1073.28 288.328C1073.56 287.872 1074.01 287.548 1074.53 287.427L1177.1 263.605Z" fill="black" fill-opacity="0.2"/>
<path d="M1402.77 580.859C1403.66 581.507 1403.86 582.757 1403.21 583.652L1279.99 753.917C1279.35 754.812 1278.1 755.012 1277.2 754.365L1043.13 584.969C1042.24 584.322 1042.04 583.071 1042.69 582.176L1165.91 411.912C1166.55 411.017 1167.8 410.816 1168.7 411.464L1402.77 580.859Z" fill="#FBC5D0"/>
<path d="M1167.64 413.782L1045 583.237L1278.26 752.046L1400.9 582.592L1167.64 413.782ZM1041.67 586.995C1039.65 585.537 1039.2 582.724 1040.66 580.711L1163.88 410.446C1165.34 408.433 1168.15 407.982 1170.16 409.439L1404.23 578.834C1406.25 580.291 1406.7 583.105 1405.24 585.118L1282.02 755.383C1280.56 757.396 1277.75 757.847 1275.74 756.39L1041.67 586.995Z" fill="url(#paint7_linear_26_2)"/>
<path d="M791.859 700.026L492.539 654.665L523.53 450.161L822.851 495.522L791.859 700.026Z" fill="#F395C7"/>
<path d="M492.538 654.665L523.53 450.161L822.851 495.522L791.859 700.026L492.538 654.665ZM817.158 499.717L527.725 455.854L498.231 650.471L787.665 694.333L817.158 499.717Z" fill="url(#paint8_linear_26_2)"/>
<path d="M795.169 143.974L792 166.338L815.764 246.208L907.652 251V231.831L933 207.87L891.809 198.286V166.338H853.787V128L825.27 159.948L795.169 143.974Z" fill="#FA8EBB"/>
<path d="M856.286 163.838H894.309V196.3L938.1 206.49L910.151 232.908V253.634L813.871 248.612L789.448 166.527L793.193 140.096L824.71 156.82L856.286 121.445V163.838ZM825.829 163.075L797.144 147.853L794.552 166.147L817.656 243.803L905.151 248.365V230.754L927.9 209.25L889.309 200.271V168.838H851.286V134.555L825.829 163.075Z" fill="url(#paint9_linear_26_2)"/>
<path d="M523.207 208.908L747.23 85.2007L870.395 308.241L646.373 431.948L523.207 208.908Z" fill="#F991C2"/>
<path d="M747.23 85.2007L870.395 308.241L646.373 431.948L523.207 208.908L747.23 85.2007ZM648.333 425.154L863.601 306.281L745.27 91.9947L530.001 210.868L648.333 425.154Z" fill="url(#paint10_linear_26_2)"/>
<path d="M731.78 166.473C736.381 163.406 743.603 144.902 740.981 135.804C738.984 128.875 736.381 125.07 728.713 125.07C721.046 125.07 714.912 138.871 714.912 138.871C714.912 138.871 701.353 135.06 696.511 140.404C690.754 146.758 696.511 155.739 702.645 160.339C708.779 164.939 727.18 169.54 731.78 166.473Z" fill="#F770B0"/>
<path d="M737.914 255.413C742.514 252.346 749.736 233.843 747.115 224.744C745.118 217.815 742.514 214.01 734.847 214.01C727.18 214.01 721.046 227.811 721.046 227.811C721.046 227.811 707.487 224.001 702.645 229.345C696.888 235.699 702.645 244.679 708.779 249.28C714.912 253.88 733.314 258.48 737.914 255.413Z" fill="#F770B0"/>
<path d="M630.573 221.677C635.173 218.61 642.395 200.106 639.774 191.008C637.777 184.079 635.173 180.274 627.506 180.274C619.839 180.274 613.705 194.075 613.705 194.075C613.705 194.075 600.145 190.264 595.304 195.608C589.547 201.962 595.304 210.943 601.437 215.543C607.571 220.143 625.973 224.744 630.573 221.677Z" fill="#F770B0"/>
<path d="M568.707 278.415C568.707 278.415 579.674 256.046 577.242 246.61C575.39 239.424 572.974 235.479 565.862 235.479C558.749 235.479 553.059 249.791 553.059 249.791L568.707 278.415Z" fill="#F770B0"/>
<path d="M1125.28 294.197C1126.35 293.95 1127.43 294.622 1127.67 295.699L1165.57 460.9C1165.81 461.976 1165.14 463.049 1164.06 463.296L913.569 520.752C912.493 520.999 911.42 520.327 911.173 519.25L873.281 354.049C873.034 352.973 873.706 351.9 874.783 351.653L1125.28 294.197Z" fill="#F691C1"/>
<path d="M875.829 353.978L913.498 518.203L1163.02 460.971L1125.35 296.745L875.829 353.978ZM914.128 523.189C911.706 523.744 909.292 522.231 908.736 519.808L870.844 354.608C870.288 352.186 871.802 349.772 874.224 349.216L1124.72 291.76C1127.14 291.204 1129.55 292.718 1130.11 295.14L1168 460.34C1168.56 462.763 1167.04 465.177 1164.62 465.732L914.128 523.189Z" fill="url(#paint11_linear_26_2)"/>
<path d="M992.787 327L927 342.349L933.12 442.116L995.847 459C995.847 459 1009.62 431.372 1006.56 393C1003.5 354.628 992.787 327 992.787 327Z" fill="black" fill-opacity="0.2"/>
<path d="M747.529 646.716C802.696 629.277 968.201 508.708 968.345 398.297C968.444 322.836 926.942 240.352 845.669 225.018C764.397 209.684 701.525 287.889 701.525 287.889C701.525 287.889 621.602 231.397 557.381 271.021C481.02 318.135 450.642 398.298 488.376 479.57C526.11 560.843 692.361 664.155 747.529 646.716Z" fill="#F776B8"/>
<path d="M846.133 222.561C929.064 238.208 970.944 322.197 970.845 398.301C970.808 426.516 960.215 455.203 943.679 482.534C927.134 509.879 904.549 536.016 880.298 559.179C856.04 582.348 830.059 602.595 806.669 618.152C783.324 633.678 762.406 644.635 748.282 649.1C733.653 653.724 712.235 650.269 688.232 641.741C664.078 633.16 636.775 619.245 610.073 602.269C583.366 585.289 557.189 565.202 535.301 544.232C513.439 523.287 495.727 501.34 486.108 480.623C466.988 439.442 465.081 398.415 477.729 361.673C490.368 324.954 517.477 292.704 556.068 268.894C589.087 248.521 625.999 252.95 654.314 262.221C668.504 266.867 680.647 272.762 689.24 277.492C693.539 279.858 696.957 281.937 699.306 283.429C699.98 283.857 700.565 284.237 701.059 284.562C701.465 284.091 701.951 283.532 702.518 282.896C704.427 280.753 707.236 277.72 710.86 274.133C718.103 266.963 728.619 257.561 741.713 248.637C767.86 230.819 804.578 214.72 846.133 222.561ZM965.845 398.294C965.943 323.476 924.82 242.496 845.206 227.474C805.489 219.981 770.135 235.319 744.528 252.769C731.745 261.481 721.463 270.672 714.377 277.686C710.837 281.191 708.1 284.147 706.253 286.221C705.329 287.258 704.629 288.074 704.162 288.627C703.929 288.904 703.753 289.114 703.638 289.254C703.58 289.324 703.538 289.377 703.51 289.41C703.497 289.427 703.487 289.439 703.48 289.447C703.477 289.45 703.475 289.453 703.474 289.455L703.474 289.456L702.001 291.287L700.082 289.931L700.081 289.93C700.079 289.929 700.077 289.927 700.074 289.924C700.066 289.919 700.053 289.91 700.035 289.898C700.001 289.874 699.947 289.836 699.875 289.786C699.729 289.686 699.509 289.536 699.217 289.34C698.633 288.947 697.762 288.371 696.626 287.65C694.353 286.207 691.025 284.182 686.828 281.872C678.428 277.248 666.576 271.497 652.758 266.973C625.056 257.903 589.895 253.898 558.693 273.149C520.924 296.453 494.663 327.841 482.457 363.3C470.259 398.735 472.029 438.425 490.643 478.517C499.892 498.436 517.113 519.882 538.76 540.621C560.38 561.334 586.288 581.223 612.756 598.05C639.23 614.881 666.193 628.605 689.906 637.03C713.769 645.508 733.82 648.428 746.775 644.332C760.234 640.078 780.693 629.424 803.9 613.989C827.063 598.584 852.811 578.517 876.844 555.563C900.883 532.603 923.149 506.805 939.401 479.946C955.661 453.072 965.81 425.284 965.845 398.294Z" fill="url(#paint12_linear_26_2)"/>
<path d="M920 821L698.604 802.597C698.604 802.597 684.766 781.127 672.467 609.366C660.167 437.604 672.467 410 672.467 410L920 437.604V821Z" fill="#F38AC4"/>
<path d="M672.744 407.516L920.277 435.12C921.543 435.261 922.5 436.331 922.5 437.604V821C922.5 821.699 922.208 822.366 921.693 822.84C921.179 823.313 920.49 823.549 919.793 823.491L698.396 805.089C697.623 805.025 696.923 804.604 696.502 803.951L698.604 802.597C696.503 803.951 696.5 803.948 696.498 803.944C696.497 803.943 696.495 803.94 696.493 803.938C696.49 803.932 696.487 803.927 696.483 803.921C696.476 803.91 696.468 803.897 696.46 803.883C696.443 803.855 696.423 803.822 696.4 803.783C696.355 803.705 696.298 803.603 696.23 803.474C696.096 803.216 695.915 802.848 695.693 802.339C695.25 801.321 694.632 799.728 693.866 797.314C692.337 792.491 690.2 784.334 687.689 770.85C682.669 743.883 676.126 695.471 669.973 609.544C663.819 523.606 663.812 473.651 665.357 445.137C666.13 430.878 667.293 421.951 668.277 416.549C668.77 413.846 669.22 412.015 669.559 410.833C669.728 410.242 669.87 409.81 669.977 409.512C670.03 409.362 670.075 409.246 670.109 409.159C670.127 409.116 670.141 409.079 670.153 409.05C670.159 409.035 670.165 409.023 670.17 409.012C670.172 409.006 670.175 409.001 670.177 408.996C670.178 408.994 670.18 408.991 670.181 408.989C670.182 408.986 670.183 408.982 672.467 410L670.183 408.982C670.626 407.988 671.662 407.395 672.744 407.516ZM674.229 412.711C673.955 413.735 673.594 415.265 673.196 417.445C672.259 422.586 671.115 431.295 670.351 445.407C668.821 473.635 668.814 523.364 674.96 609.187C681.107 695.021 687.633 743.226 692.605 769.935C695.092 783.288 697.184 791.233 698.633 795.803C699.324 797.982 699.866 799.38 700.228 800.223L917.5 818.283V439.841L674.229 412.711Z" fill="url(#paint13_linear_26_2)"/>
<path d="M1137.72 761.371C1139.07 761.41 1139.99 762.748 1139.55 764.024L1106.38 859.779C1106.1 860.585 1105.35 861.125 1104.49 861.125L911.155 861.125C910.257 861.125 909.47 860.526 909.229 859.661L880.481 756.399C880.119 755.101 881.119 753.824 882.466 753.863L1137.72 761.371Z" fill="black" fill-opacity="0.2"/>
<path d="M1113.36 730.706C1114.66 730.744 1115.58 732.004 1115.22 733.26L1058.8 928.685C1058.55 929.541 1057.77 930.13 1056.88 930.13L885.313 930.13C884.313 930.13 883.467 929.392 883.331 928.401L855.567 725.454C855.4 724.23 856.372 723.148 857.608 723.184L1113.36 730.706Z" fill="#F88FE2"/>
<path d="M1113.36 730.706C1114.66 730.745 1115.58 732.005 1115.22 733.26L1058.8 928.685C1058.55 929.541 1057.77 930.13 1056.88 930.13L885.312 930.13C884.313 930.13 883.466 929.392 883.331 928.401L855.568 725.455L855.549 725.226C855.523 724.099 856.449 723.15 857.608 723.184L1113.36 730.706ZM861.002 728.285L887.93 925.129L1054.62 925.129L1109.34 735.589L861.002 728.285Z" fill="url(#paint14_linear_26_2)"/>
<path d="M976.615 832.242C962.513 835.016 944.412 832.242 936.745 832.242C929.078 832.242 904.593 827.991 895.342 832.242C875.208 841.493 878.866 876.01 899.943 882.846C906.778 885.063 934.159 888.979 941.346 888.979C962.904 888.979 972.475 893.822 993.483 888.979C1004 886.554 1013.78 882.911 1022.62 876.712C1030.97 870.856 1034.85 869.559 1037.95 859.844C1041.25 849.512 1041.83 840.573 1034.89 832.242C1027.72 823.648 1018.46 824.006 1007.28 824.575C997.827 825.055 985.905 830.414 976.615 832.242Z" fill="#FDBBD6"/>
<path d="M1007.16 822.078C1018.14 821.52 1028.74 820.961 1036.81 830.641C1044.57 839.952 1043.73 849.961 1040.33 860.604C1038.69 865.765 1036.75 868.917 1033.97 871.542C1031.39 873.979 1027.99 875.997 1024.05 878.759C1014.87 885.198 1004.77 888.944 994.045 891.416C983.232 893.908 975.321 893.908 967.426 893.288C959.509 892.667 951.999 891.479 941.346 891.479C937.541 891.479 928.72 890.47 920.151 889.218C911.603 887.969 902.827 886.409 899.171 885.223C887.423 881.413 880.799 870.013 879.7 858.69C878.601 847.363 882.963 835.179 894.299 829.971C897.052 828.706 900.702 828.156 904.502 827.952C908.36 827.745 912.639 827.885 916.799 828.153C920.962 828.422 925.073 828.824 928.577 829.155C932.142 829.492 934.973 829.742 936.745 829.742C938.77 829.742 941.436 829.924 944.407 830.139C947.415 830.356 950.801 830.613 954.387 830.785C961.583 831.129 969.388 831.116 976.133 829.789C980.612 828.908 985.712 827.178 991.156 825.513C996.469 823.888 1002.08 822.336 1007.16 822.078ZM1032.97 833.843C1026.71 826.334 1018.77 826.493 1007.41 827.071C1003.03 827.294 997.953 828.662 992.618 830.294C987.415 831.885 981.909 833.749 977.098 834.695C969.74 836.142 961.444 836.128 954.147 835.779C950.487 835.604 947.029 835.342 944.046 835.126C941.026 834.907 938.553 834.742 936.745 834.742C934.683 834.742 931.579 834.46 928.107 834.133C924.575 833.799 920.549 833.405 916.476 833.142C912.4 832.879 908.343 832.754 904.769 832.945C901.137 833.14 898.258 833.653 896.386 834.514C887.588 838.556 883.711 848.255 884.677 858.208C885.643 868.165 891.385 877.442 900.714 880.468C903.893 881.499 912.227 883.007 920.874 884.27C929.501 885.531 937.964 886.479 941.346 886.479C952.251 886.479 960.306 887.713 967.816 888.303C975.347 888.894 982.727 888.893 992.921 886.543C1003.24 884.165 1012.69 880.623 1021.18 874.665C1025.59 871.571 1028.31 870.012 1030.54 867.908C1032.56 865.992 1034.12 863.638 1035.57 859.084C1038.77 849.064 1039.09 841.195 1032.97 833.843Z" fill="#A44683"/>
<path d="M1023.89 875.508L1019.27 877.411L997.798 825.274L1002.42 823.37L1023.89 875.508Z" fill="#A44683"/>
<path d="M988.795 888.466L983.822 888.988L977.688 830.718L982.661 830.194L988.795 888.466Z" fill="#A44683"/>
<path d="M1017.48 781.422C1020.71 779.65 1024.39 778.461 1028.09 779.028C1032.03 779.632 1034.86 782.045 1036.84 784.956C1038.79 787.835 1040.04 791.357 1040.84 794.639C1041.66 797.946 1042.06 801.166 1042.27 803.543C1042.37 804.736 1042.42 805.729 1042.45 806.428C1042.46 806.777 1042.47 807.054 1042.47 807.246C1042.48 807.342 1042.48 807.418 1042.48 807.471C1042.48 807.497 1042.48 807.517 1042.48 807.532V807.558C1042.47 807.559 1042.37 807.56 1039.98 807.568L1042.48 807.559C1042.48 808.94 1041.37 810.064 1039.99 810.068C1038.61 810.073 1037.48 808.957 1037.48 807.576V807.527C1037.48 807.488 1037.48 807.427 1037.48 807.346C1037.47 807.183 1037.47 806.938 1037.45 806.622C1037.43 805.99 1037.38 805.077 1037.29 803.973C1037.09 801.754 1036.72 798.807 1035.99 795.831C1035.25 792.829 1034.19 789.952 1032.7 787.767C1031.24 785.615 1029.49 784.302 1027.33 783.971C1025.16 783.637 1022.64 784.297 1019.88 785.807C1017.15 787.302 1014.44 789.499 1012 791.832C1009.57 794.153 1007.48 796.541 1006 798.355C1005.26 799.26 1004.67 800.016 1004.28 800.543C1004.08 800.806 1003.93 801.012 1003.83 801.149C1003.78 801.218 1003.74 801.269 1003.71 801.303C1003.7 801.319 1003.69 801.331 1003.69 801.339C1003.69 801.342 1003.68 801.345 1003.68 801.347L1003.52 801.548C1002.69 802.502 1001.25 802.689 1000.2 801.94C999.071 801.142 998.805 799.581 999.603 798.455L1001.56 799.843C999.603 798.456 999.603 798.455 999.604 798.454L999.605 798.453C999.606 798.452 999.607 798.45 999.609 798.448C999.611 798.445 999.614 798.439 999.619 798.433C999.627 798.421 999.639 798.405 999.655 798.384C999.686 798.341 999.73 798.279 999.787 798.2C999.903 798.042 1000.07 797.816 1000.29 797.53C1000.72 796.959 1001.34 796.15 1002.13 795.189C1003.7 793.272 1005.92 790.721 1008.54 788.217C1011.15 785.724 1014.22 783.207 1017.48 781.422Z" fill="#A94093"/>
<path d="M914.162 777.578C918.148 773.426 924.307 768.746 931.484 769.847C938.913 770.987 942.861 777.039 944.892 782.046C945.932 784.61 946.553 787.089 946.915 788.914C947.097 789.831 947.216 790.595 947.289 791.135C947.326 791.405 947.352 791.621 947.369 791.773C947.377 791.848 947.384 791.908 947.388 791.952C947.39 791.973 947.392 791.991 947.393 792.004C947.394 792.011 947.395 792.017 947.395 792.021V792.029C947.388 792.03 947.255 792.043 944.906 792.252L947.396 792.031C947.518 793.406 946.502 794.62 945.127 794.743C943.838 794.857 942.69 793.972 942.451 792.728L942.415 792.475C942.415 792.471 942.414 792.462 942.413 792.45C942.41 792.424 942.406 792.382 942.4 792.326C942.387 792.212 942.366 792.038 942.335 791.811C942.273 791.356 942.171 790.693 942.011 789.887C941.69 788.267 941.146 786.112 940.259 783.926C938.437 779.433 935.484 775.518 930.725 774.788C926.152 774.087 921.577 777.074 917.767 781.04C915.936 782.947 914.437 784.921 913.393 786.427C912.873 787.177 912.47 787.804 912.201 788.238C912.066 788.454 911.965 788.623 911.9 788.734C911.867 788.789 911.842 788.83 911.828 788.856C911.82 788.869 911.815 788.878 911.812 788.883C911.811 788.885 911.81 788.887 911.81 788.887C911.128 790.087 909.603 790.507 908.403 789.827C907.202 789.145 906.781 787.62 907.461 786.419L909.55 787.604C907.461 786.419 907.462 786.418 907.462 786.417L907.463 786.415C907.464 786.414 907.465 786.412 907.466 786.411C907.468 786.407 907.471 786.402 907.474 786.397C907.481 786.385 907.49 786.37 907.501 786.35C907.524 786.311 907.556 786.256 907.597 786.187C907.679 786.048 907.798 785.849 907.953 785.601C908.261 785.105 908.709 784.406 909.284 783.578C910.429 781.927 912.094 779.73 914.162 777.578Z" fill="#A94093"/>
<path d="M919.15 425.626L1213.13 497.906L1163.75 698.763L869.766 626.483L919.15 425.626Z" fill="#F395C7"/>
<path d="M1213.13 497.906L1163.75 698.763L869.766 626.483L919.15 425.626L1213.13 497.906ZM875.816 622.821L1160.09 692.714L1207.08 501.567L922.812 431.675L875.816 622.821Z" fill="url(#paint15_linear_26_2)"/>
<path d="M783.482 832.22C782.871 831.258 783.184 829.981 784.171 829.413L901.233 761.992C902.143 761.468 903.304 761.737 903.89 762.609L1018.12 932.452C1018.79 933.454 1018.44 934.818 1017.36 935.358L891.314 998.329C890.398 998.787 889.283 998.478 888.733 997.614L783.482 832.22Z" fill="#F9C5D2"/>
<path d="M901.232 761.992C902.143 761.468 903.305 761.737 903.891 762.609L1018.12 932.453C1018.79 933.454 1018.43 934.818 1017.36 935.357L891.315 998.329L891.141 998.406C890.32 998.724 889.384 998.464 888.843 997.769L888.733 997.614L783.482 832.22C782.871 831.259 783.185 829.981 784.172 829.413L901.232 761.992ZM789.383 832.18L891.499 992.646L1012.07 932.41L901.304 767.721L789.383 832.18Z" fill="url(#paint16_linear_26_2)"/>
<path d="M578.384 433.954C577.63 432.856 578.14 431.342 579.404 430.924L851.365 340.94L895.711 521.725C895.792 522.058 895.787 522.407 895.695 522.737L888.168 549.835L725.407 604.596C724.615 604.862 723.74 604.608 723.214 603.957L665.818 532.967L667.352 563.636L578.384 433.954Z" fill="black" fill-opacity="0.2"/>
<path d="M621.205 384.907C620.505 383.79 621.058 382.313 622.319 381.93L920.857 291.464C922.142 291.075 923.437 292.036 923.437 293.378L923.437 511.606C923.437 512.459 922.896 513.219 922.089 513.497L742.459 575.386C741.579 575.689 740.607 575.346 740.113 574.558L621.205 384.907Z" fill="#F993E3"/>
<path d="M920.858 291.464C922.142 291.075 923.437 292.037 923.437 293.379L923.437 511.606L923.431 511.765C923.368 512.553 922.845 513.236 922.089 513.497L742.459 575.386C741.634 575.67 740.728 575.386 740.211 574.7L740.113 574.557L621.205 384.907C620.505 383.79 621.058 382.313 622.319 381.93L920.858 291.464ZM743.083 569.883L918.436 509.467L918.437 297.421L627.525 385.576L743.083 569.883Z" fill="url(#paint17_linear_26_2)"/>
<path d="M920.605 298.584L809.34 409.849L625.656 388.239L626.24 383.273L807.517 404.601L917.07 295.049L920.605 298.584Z" fill="#7E2E5E"/>
<defs>
<linearGradient id="paint0_linear_26_2" x1="1028.42" y1="795.696" x2="885.595" y2="777.698" gradientUnits="userSpaceOnUse">
<stop stop-color="#7D2E5E"/>
<stop offset="1" stop-color="#BA1F96"/>
</linearGradient>
<linearGradient id="paint1_linear_26_2" x1="1372.05" y1="293.72" x2="1305.34" y2="381.175" gradientUnits="userSpaceOnUse">
<stop stop-color="#7D2E5E"/>
<stop offset="1" stop-color="#BA1F96"/>
</linearGradient>
<linearGradient id="paint2_linear_26_2" x1="1124.32" y1="200.209" x2="1074.94" y2="298.491" gradientUnits="userSpaceOnUse">
<stop stop-color="#7D2E5E"/>
<stop offset="1" stop-color="#BA1F96"/>
</linearGradient>
<linearGradient id="paint3_linear_26_2" x1="1443.16" y1="370.34" x2="1302.04" y2="223.56" gradientUnits="userSpaceOnUse">
<stop stop-color="#582143"/>
<stop offset="1" stop-color="#BA1F96"/>
</linearGradient>
<linearGradient id="paint4_linear_26_2" x1="938.894" y1="387.182" x2="1429.49" y2="503.071" gradientUnits="userSpaceOnUse">
<stop stop-color="#7D2E5E"/>
<stop offset="1" stop-color="#BA1F96"/>
</linearGradient>
<linearGradient id="paint5_linear_26_2" x1="1000.19" y1="282.076" x2="1004.8" y2="391.97" gradientUnits="userSpaceOnUse">
<stop stop-color="#7D2E5E"/>
<stop offset="1" stop-color="#BA1F96"/>
</linearGradient>
<linearGradient id="paint6_linear_26_2" x1="1221.18" y1="258.498" x2="1113.95" y2="424.694" gradientUnits="userSpaceOnUse">
<stop stop-color="#7D2E5E"/>
<stop offset="1" stop-color="#BA1F96"/>
</linearGradient>
<linearGradient id="paint7_linear_26_2" x1="1241.67" y1="597.588" x2="1092.19" y2="490.678" gradientUnits="userSpaceOnUse">
<stop stop-color="#7D2E5E"/>
<stop offset="1" stop-color="#BA1F96"/>
</linearGradient>
<linearGradient id="paint8_linear_26_2" x1="653.908" y1="591.496" x2="672.993" y2="463.141" gradientUnits="userSpaceOnUse">
<stop stop-color="#7D2E5E"/>
<stop offset="1" stop-color="#BA1F96"/>
</linearGradient>
<linearGradient id="paint9_linear_26_2" x1="862.5" y1="128" x2="862.5" y2="251" gradientUnits="userSpaceOnUse">
<stop stop-color="#582143"/>
<stop offset="1" stop-color="#BA1F96"/>
</linearGradient>
<linearGradient id="paint10_linear_26_2" x1="635.219" y1="147.055" x2="765.492" y2="379.623" gradientUnits="userSpaceOnUse">
<stop stop-color="#7D2E5E"/>
<stop offset="1" stop-color="#BA1F96"/>
</linearGradient>
<linearGradient id="paint11_linear_26_2" x1="1040.23" y1="403.458" x2="880.862" y2="441.047" gradientUnits="userSpaceOnUse">
<stop stop-color="#7D2E5E"/>
<stop offset="1" stop-color="#BA1F96"/>
</linearGradient>
<linearGradient id="paint12_linear_26_2" x1="475.671" y1="439.427" x2="978.641" y2="405.691" gradientUnits="userSpaceOnUse">
<stop stop-color="#7D2E5E"/>
<stop offset="1" stop-color="#BA1F96"/>
</linearGradient>
<linearGradient id="paint13_linear_26_2" x1="777.698" y1="836.336" x2="710.132" y2="614.059" gradientUnits="userSpaceOnUse">
<stop stop-color="#582143"/>
<stop offset="1" stop-color="#BA1F96"/>
</linearGradient>
<linearGradient id="paint14_linear_26_2" x1="984.057" y1="965.399" x2="834.78" y2="761.841" gradientUnits="userSpaceOnUse">
<stop stop-color="#7D2E5E"/>
<stop offset="1" stop-color="#BA1F96"/>
</linearGradient>
<linearGradient id="paint15_linear_26_2" x1="1046.71" y1="546.202" x2="1016.08" y2="672.302" gradientUnits="userSpaceOnUse">
<stop stop-color="#7D2E5E"/>
<stop offset="1" stop-color="#BA1F96"/>
</linearGradient>
<linearGradient id="paint16_linear_26_2" x1="893.649" y1="856.135" x2="893.619" y2="776.396" gradientUnits="userSpaceOnUse">
<stop stop-color="#5D1D44"/>
<stop offset="1" stop-color="#73055A"/>
</linearGradient>
<linearGradient id="paint17_linear_26_2" x1="794.765" y1="472.34" x2="838.495" y2="594.516" gradientUnits="userSpaceOnUse">
<stop stop-color="#7D2E5E"/>
<stop offset="1" stop-color="#BA1F96"/>
</linearGradient>
</defs>
</svg>
